<?xml version="1.0" encoding="UTF-8" standalone="no"?>
<svg
   xmlns:dc="http://purl.org/dc/elements/1.1/"
   xmlns:cc="http://creativecommons.org/ns#"
   xmlns:rdf="http://www.w3.org/1999/02/22-rdf-syntax-ns#"
   xmlns:svg="http://www.w3.org/2000/svg"
   xmlns="http://www.w3.org/2000/svg"
   height="1536"
   width="1918"
   id="svg874"
   viewBox="-10 0 1918 1536"
   version="1.1">
  <metadata
     id="metadata880">
    <rdf:RDF>
      <cc:Work
         rdf:about="">
        <dc:format>image/svg+xml</dc:format>
        <dc:type
           rdf:resource="http://purl.org/dc/dcmitype/StillImage" />
        <dc:title></dc:title>
      </cc:Work>
    </rdf:RDF>
  </metadata>
  <defs
     id="defs878" />
  <g
     id="g2733">
    <rect
       style="opacity:1;fill:#ff0000;fill-opacity:1;stroke:none;stroke-width:16.332304;stroke-linecap:round;stroke-linejoin:round;stroke-miterlimit:4;stroke-dasharray:none;stroke-dashoffset:0;stroke-opacity:1;paint-order:normal"
       id="rect1448"
       width="364"
       height="517"
       x="1007"
       y="190" />
    <rect
       style="opacity:1;fill:#0000ff;fill-opacity:1;stroke:none;stroke-width:16.3516674;stroke-linecap:round;stroke-linejoin:round;stroke-miterlimit:4;stroke-dasharray:none;stroke-dashoffset:0;stroke-opacity:1;paint-order:normal"
       id="rect1448-3"
       width="363.45758"
       height="519"
       x="1007.5424"
       y="738" />
    <rect
       style="opacity:1;fill:#008000;fill-opacity:1;stroke:none;stroke-width:17.37718964;stroke-linecap:round;stroke-linejoin:round;stroke-miterlimit:4;stroke-dasharray:none;stroke-dashoffset:0;stroke-opacity:1;paint-order:normal"
       id="rect1448-6"
       width="448.5"
       height="475"
       x="1371"
       y="175" />
    <rect
       style="opacity:1;fill:#ffff00;fill-opacity:1;stroke:none;stroke-width:17.43197632;stroke-linecap:round;stroke-linejoin:round;stroke-miterlimit:4;stroke-dasharray:none;stroke-dashoffset:0;stroke-opacity:1;paint-order:normal"
       id="rect1448-6-7"
       width="448.5"
       height="478"
       x="1371"
       y="726" />
    <path
       style="fill:#000000"
       d="m 58,121 v 59 l -68,28 v -58 z"
       id="path2663" />
    <path
       style="fill:#ff0000"
       d="m 51,312 v 53 l -55,25 v -52 z"
       id="path2661" />
    <path
       style="fill:#ff0000"
       d="m 51,504 v 52 l -55,25 v -52 z"
       id="path2659" />
    <path
       style="fill:#000000"
       d="m 58,693 v 59 l -68,28 v -57 z"
       id="path2657" />
    <path
       style="fill:#0000ff"
       d="m 51,892 v 51 l -55,25 v -52 z"
       id="path2655" />
    <path
       style="fill:#0000ff"
       d="m 51,1086 v 52 l -55,25 v -51 z"
       id="path2653" />
    <path
       style="fill:#000000"
       d="m 58,1273 v 60 l -68,28 v -57 z"
       id="path2651" />
    <path
       style="fill:#000000"
       d="m 230,154 v 69 l -92,35 v -68 z"
       id="path2649" />
    <path
       style="fill:#ff0000"
       d="m 225,354 v 63 l -74,29 v -63 z"
       id="path2647" />
    <path
       style="fill:#ff0000"
       d="m 225,547 v 62 l -74,29 v -64 z"
       id="path2645" />
    <path
       style="fill:#000000"
       d="m 230,733 v 68 l -92,36 v -68 z"
       id="path2643" />
    <path
       style="fill:#0000ff"
       d="m 225,933 v 62 l -74,30 v -64 z"
       id="path2641" />
    <path
       style="fill:#0000ff"
       d="m 225,1128 v 62 l -74,30 v -63 z"
       id="path2639" />
    <path
       style="fill:#000000"
       d="m 230,1315 v 68 l -92,38 v -68 z"
       id="path2637" />
    <path
       style="fill:#000000"
       d="m 402,197 v 82 l -119,47 v -81 z"
       id="path2635" />
    <path
       style="fill:#ff0000"
       d="m 396,398 v 73 l -100,39 v -71 z"
       id="path2633" />
    <path
       style="fill:#ff0000"
       d="m 396,591 v 72 l -100,40 v -72 z"
       id="path2631" />
    <path
       style="fill:#000000"
       d="m 402,776 v 82 l -119,47 v -81 z"
       id="path2629" />
    <path
       style="fill:#0000ff"
       d="m 396,977 v 72 l -100,41 v -72 z"
       id="path2627" />
    <path
       style="fill:#0000ff"
       d="m 396,1164 v 74 l -100,40 v -72 z"
       id="path2625" />
    <path
       style="fill:#000000"
       d="m 402,1351 v 82 l -119,48 v -82 z"
       id="path2623" />
    <path
       style="fill:#000000"
       d="M 590,192 V 300 L 441,360 V 253 Z"
       id="path2621" />
    <path
       style="fill:#ff0000"
       d="m 582,393 v 99 l -125,51 v -99 z"
       id="path2619" />
    <path
       style="fill:#ff0000"
       d="m 582,586 v 98 l -125,51 v -99 z"
       id="path2617" />
    <path
       style="fill:#000000"
       d="M 590,772 V 880 L 441,939 V 831 Z"
       id="path2615" />
    <path
       style="fill:#0000ff"
       d="m 582,973 v 99 l -125,50 v -99 z"
       id="path2613" />
    <path
       style="fill:#0000ff"
       d="m 582,1160 v 99 l -125,50 v -98 z"
       id="path2611" />
    <path
       style="fill:#000000"
       d="m 590,1346 v 108 l -149,60 v -107 z"
       id="path2609" />
    <path
       style="fill:#000000"
       d="M 787,174 V 315 L 621,383 V 242 Z"
       id="path2607" />
    <path
       style="fill:#ff0000"
       d="M 779,386 V 504 L 637,561 V 442 Z"
       id="path2605" />
    <path
       style="fill:#ff0000"
       d="M 779,570 V 689 L 637,745 V 627 Z"
       id="path2603" />
    <path
       style="fill:#000000"
       d="M 787,753 V 894 L 621,961 V 820 Z"
       id="path2601" />
    <path
       style="fill:#0000ff"
       d="m 779,964 v 120 l -142,55 v -118 z"
       id="path2599" />
    <path
       style="fill:#0000ff"
       d="m 779,1152 v 119 l -142,57 v -119 z"
       id="path2597" />
    <path
       style="fill:#000000"
       d="m 787,1328 v 141 l -166,67 v -141 z"
       id="path2595" />
    <path
       style="fill:#000000"
       d="M 988,103 V 296 L 811,370 V 190 c 61.33333,-35.3333 120.3333,-64.3333 177,-87 z"
       id="path2593" />
    <path
       style="fill:#000000"
       d="M 988,316 V 483 L 811,558 V 390 Z"
       id="path2591" />
    <path
       style="fill:#000000"
       d="M 988,504 V 673 L 811,748 V 579 Z"
       id="path2589" />
    <path
       style="fill:#000000"
       d="M 988,694 V 861 L 811,936 V 768 Z"
       id="path2587" />
    <path
       style="fill:#000000"
       d="m 988,882 v 172 l -177,76 V 957 Z"
       id="path2585" />
    <path
       style="fill:#000000"
       d="m 988,1075 v 168 l -177,77 v -170 z"
       id="path2583" />
    <path
       style="fill:#000000"
       d="m 988,1264 v 180 c -69.3333,26.6667 -128.33333,52.3333 -177,77 v -181 z"
       id="path2581" />
    <path
       style="fill:#000000"
       d="m 1474,0 c -149.3333,0 -301.6667,31.6667 -457,95 v 190 c 106,-44.6667 208,-76.3333 306,-95 v 427 c -108.6667,16 -210.6667,46 -306,90 v 129 c 110,-53.33333 212,-86 306,-98 v 440 c -111.3333,16 -213.3333,42.3333 -306,79 v 180 c 174.6667,-58.6667 332.6667,-88 474,-88 170.6667,0 313,37.3333 427,112 V 110 C 1782.6667,36.6667 1634.6667,0 1474,0 Z m 1,175 c 103.3333,0 192,18.6667 266,56 v 419 c -86,-28 -173.3333,-42 -262,-42 l -40,1 V 177 c 12,-1.3333 24,-2 36,-2 z m 2,551 c 96.6667,0 184.6667,17.33333 264,52 v 426 c -78,-24 -165.3333,-36 -262,-36 h -40 V 728 c 13.3333,-1.33333 26,-2 38,-2 z"
       transform="translate(-10)"
       id="path2579" />
  </g>
</svg>
